<?xml version="1.0" encoding="UTF-8" ?>
<!DOCTYPE svg PUBLIC "-//W3C//DTD SVG 1.1//EN" "http://www.w3.org/Graphics/SVG/1.1/DTD/svg11.dtd">
<svg width="356pt" height="371pt" viewBox="0 0 356 371" version="1.1" xmlns="http://www.w3.org/2000/svg">
<g id="#fcfcfcff">
</g>
<g id="#0c0c0cff">
<path fill="#0c0c0c" opacity="1.00" d=" M 157.44 14.58 C 168.95 13.79 180.49 13.73 192.02 14.13 C 257.39 19.38 316.13 66.43 338.32 127.74 C 347.70 152.93 351.08 180.34 348.16 207.06 C 341.19 264.10 303.95 315.84 252.99 341.96 C 224.83 356.47 192.48 362.79 160.95 360.27 C 96.46 354.68 37.74 309.85 14.24 249.72 C 3.08 221.47 -1.00 190.14 4.17 160.12 C 13.96 99.81 57.30 46.05 114.59 24.47 C 128.30 19.15 142.76 15.64 157.44 14.58 M 164.45 19.58 C 97.94 23.53 37.21 71.61 16.57 134.70 C -4.18 192.76 13.06 261.25 56.68 304.32 C 92.55 341.33 146.25 361.20 197.55 353.44 C 252.89 346.28 303.09 309.30 327.04 259.02 C 350.92 210.18 348.39 149.27 320.37 102.65 C 289.22 49.07 226.60 14.48 164.45 19.58 Z" />
<path fill="#0c0c0c" opacity="1.00" d=" M 87.82 64.83 C 111.19 46.81 140.57 37.42 169.99 37.07 C 198.20 35.08 227.11 41.78 251.08 56.90 C 272.00 69.94 291.37 86.54 303.96 108.02 C 320.75 134.66 326.99 166.80 325.81 197.97 C 322.71 251.48 287.68 301.19 239.22 323.57 C 234.79 315.42 230.50 307.12 227.49 298.33 C 241.94 291.34 253.39 279.93 266.50 270.99 C 266.31 273.39 267.39 276.41 265.18 278.19 C 256.48 287.53 245.56 294.44 234.69 300.98 C 236.98 306.07 239.27 311.16 241.41 316.32 C 261.00 305.52 278.74 291.08 291.93 272.90 C 322.31 233.92 328.05 178.52 309.96 133.05 C 290.75 85.83 245.39 49.75 194.56 43.49 C 142.09 35.69 87.19 60.76 57.10 104.08 C 30.60 140.40 24.61 189.58 37.92 232.09 C 49.57 267.92 76.20 298.52 109.69 315.63 C 115.30 304.27 120.67 292.79 126.15 281.36 C 108.32 270.24 91.57 256.10 81.95 237.03 C 73.02 221.00 69.76 202.53 70.10 184.33 C 94.83 183.93 119.61 183.32 144.32 184.87 C 143.88 191.59 143.12 198.29 141.77 204.90 C 141.29 206.64 140.57 208.90 138.54 209.30 C 125.74 211.17 112.79 211.67 99.93 213.02 C 103.90 221.99 108.80 230.54 115.04 238.13 C 122.41 233.52 129.36 228.20 137.08 224.18 C 143.67 221.02 150.70 218.91 157.58 216.48 C 158.00 203.77 158.47 191.07 159.02 178.36 C 143.57 174.79 129.53 164.78 121.83 150.84 C 134.77 137.39 152.01 127.56 171.04 127.11 C 180.26 124.81 191.82 131.87 191.04 142.03 C 193.19 155.63 173.65 164.28 164.68 154.33 C 158.24 149.71 159.05 140.79 160.90 134.03 C 149.27 137.22 137.57 142.65 129.79 152.10 C 136.63 164.78 151.38 170.04 164.38 174.08 C 164.36 187.91 163.88 201.74 163.95 215.58 C 171.53 215.28 179.12 215.27 186.70 215.45 C 187.07 203.49 186.79 191.52 186.55 179.56 C 184.97 176.15 187.54 173.55 190.11 172.20 C 200.71 165.60 213.10 161.21 221.05 151.03 C 225.69 144.98 229.16 137.09 227.68 129.33 C 215.41 117.43 198.49 110.81 181.55 109.53 C 150.21 106.54 117.75 125.03 105.24 154.10 C 103.16 157.58 102.39 162.45 98.65 164.68 C 89.90 165.36 81.07 165.26 72.34 164.28 C 75.91 140.99 90.60 121.66 106.93 105.55 C 103.89 101.47 100.81 97.42 97.76 93.34 C 80.97 107.33 67.39 125.40 60.08 146.09 C 55.33 160.89 53.43 176.49 53.92 192.01 C 53.81 219.94 65.29 247.38 84.22 267.77 C 89.96 274.56 97.67 279.68 102.11 287.52 C 99.69 287.33 96.79 288.12 94.91 286.10 C 77.26 272.26 63.49 253.35 55.66 232.32 C 49.05 214.00 47.09 194.35 48.06 174.99 C 51.16 139.83 69.76 106.01 98.53 85.42 C 103.07 90.87 107.50 96.42 111.87 102.02 C 128.80 89.77 149.06 81.99 170.03 81.26 C 185.25 79.67 200.01 84.14 214.74 87.15 C 216.56 82.23 218.51 77.36 220.30 72.43 C 200.17 66.44 178.93 63.02 157.95 65.89 C 145.92 67.56 134.30 71.35 123.17 76.11 C 122.35 74.62 121.53 73.13 120.71 71.64 C 137.74 62.15 157.81 59.67 177.00 59.09 C 226.20 58.45 273.25 90.32 292.87 135.11 C 302.99 160.41 307.09 188.86 300.59 215.59 C 296.91 231.32 290.50 246.55 280.51 259.35 C 279.33 258.18 278.16 257.03 276.99 255.87 C 287.49 238.94 295.73 220.09 296.89 199.97 C 299.34 181.32 296.16 162.38 290.37 144.64 C 279.54 113.94 254.93 89.02 225.52 75.58 C 223.71 80.34 221.84 85.07 219.90 89.77 C 236.17 99.58 252.52 110.75 262.89 127.08 C 272.91 140.83 278.71 157.19 280.40 174.09 C 278.76 173.92 277.13 173.76 275.50 173.59 C 272.24 159.46 268.36 145.06 259.99 133.00 C 242.01 104.11 208.14 85.55 173.99 86.99 C 161.32 86.86 148.84 89.62 137.05 94.13 C 139.37 99.06 141.59 104.04 143.94 108.96 C 160.23 103.99 177.79 101.59 194.58 105.45 C 226.11 112.39 252.85 139.75 257.36 171.94 C 250.61 171.67 250.60 164.71 248.48 160.23 C 245.56 151.50 240.36 143.81 234.64 136.68 C 230.91 147.16 225.37 157.55 215.90 163.86 C 208.62 169.61 199.76 172.87 192.31 178.31 C 191.64 191.11 193.23 203.87 193.19 216.68 C 208.47 220.51 221.88 229.21 233.96 239.07 C 239.12 231.72 245.10 224.64 247.99 216.00 C 251.32 207.71 252.56 198.84 253.30 190.01 C 239.87 189.99 226.44 189.98 213.01 190.02 C 213.72 194.57 214.42 199.12 215.13 203.67 C 222.22 205.23 232.98 202.68 235.94 211.27 C 228.47 211.53 220.88 211.10 213.59 209.40 C 211.09 209.04 210.12 206.53 209.62 204.38 C 208.20 197.93 207.62 191.34 206.87 184.80 C 224.18 183.61 241.55 183.77 258.88 184.23 C 261.53 219.40 237.63 252.92 205.38 265.41 C 196.48 268.73 187.01 269.71 177.68 271.08 C 178.26 278.79 177.41 286.99 180.91 294.17 C 185.27 303.28 190.49 311.96 194.85 321.08 C 196.56 323.89 197.59 327.36 200.26 329.46 C 205.75 329.33 211.04 327.50 216.45 326.66 C 210.40 312.87 202.34 300.06 196.55 286.14 C 218.20 278.96 239.71 268.40 253.93 249.91 C 265.76 235.23 271.90 217.04 275.85 198.85 C 277.23 199.05 278.62 199.25 280.01 199.46 C 279.83 219.81 270.01 238.89 257.37 254.34 C 244.00 271.24 225.06 283.09 204.60 289.40 C 210.39 303.10 218.29 315.75 224.46 329.26 C 193.44 340.23 159.01 339.83 127.64 330.37 C 131.54 316.64 139.79 304.71 145.94 291.97 C 148.82 285.04 148.97 277.36 148.56 269.98 C 148.69 267.37 146.23 265.87 144.19 264.87 C 126.78 257.00 110.59 244.83 101.21 227.87 C 97.78 221.74 94.95 215.30 92.44 208.75 C 105.37 206.14 118.64 206.16 131.70 204.58 C 138.31 203.53 136.75 195.04 138.33 190.07 C 117.43 189.93 96.53 189.97 75.63 190.03 C 76.11 212.05 83.93 233.93 98.20 250.79 C 107.84 262.44 120.45 271.07 133.49 278.47 C 126.87 293.80 119.66 308.90 111.80 323.63 C 85.95 310.66 62.73 291.35 47.34 266.67 C 33.58 245.42 27.14 220.13 25.79 195.04 C 23.73 168.95 28.77 142.19 40.98 118.99 C 51.56 97.25 68.97 79.60 87.82 64.83 M 79.00 159.03 C 84.90 158.97 90.80 158.92 96.70 158.86 C 103.91 138.41 119.77 122.40 138.22 111.60 C 136.20 106.50 134.06 101.46 131.89 96.43 C 106.95 109.38 87.21 132.03 79.00 159.03 M 175.21 132.56 C 170.63 132.53 166.23 135.78 165.52 140.41 C 162.87 148.86 174.14 156.77 181.01 151.03 C 189.26 146.34 185.23 131.24 175.21 132.56 M 120.25 242.37 C 130.23 251.23 141.68 258.21 154.12 263.05 C 153.16 273.93 156.37 286.29 150.26 296.11 C 144.77 306.15 139.72 316.43 134.80 326.76 C 140.44 327.19 146.26 330.31 151.92 328.98 C 157.53 320.67 161.21 311.12 166.41 302.51 C 172.82 291.26 173.51 278.05 173.52 265.42 C 185.18 264.16 197.33 263.32 208.02 258.02 C 216.00 254.29 222.93 248.77 229.83 243.38 C 214.19 229.47 193.46 219.00 172.03 221.20 C 152.88 221.82 134.53 229.74 120.25 242.37 M 158.02 331.04 C 169.79 331.02 181.57 331.00 193.34 330.87 C 187.78 319.31 181.60 308.06 175.65 296.69 C 169.18 307.83 163.79 319.54 158.02 331.04 Z" />
</g>
</svg>
