<svg width="135" height="43" viewBox="0 0 135 43" fill="none" xmlns="http://www.w3.org/2000/svg">
<g clip-path="url(#clip0_113_6)">
<mask id="mask0_113_6" style="mask-type:luminance" maskUnits="userSpaceOnUse" x="0" y="0" width="135" height="43">
<path d="M135 0H0V43H135V0Z" fill="white"/>
</mask>
<g mask="url(#mask0_113_6)">
<mask id="mask1_113_6" style="mask-type:luminance" maskUnits="userSpaceOnUse" x="0" y="0" width="135" height="43">
<path d="M135 0H0V43H135V0Z" fill="white"/>
</mask>
<g mask="url(#mask1_113_6)">
<path d="M20.3952 40.5288C9.13198 40.5288 0 31.4571 0 20.2644C0 9.0717 9.13198 0 20.3952 0C11.9464 0 5.09888 9.0717 5.09888 20.2644C5.09888 31.4571 11.9464 40.5288 20.3952 40.5288Z" fill="white"/>
<path d="M40.7896 20.2644C40.7896 31.4571 31.6578 40.5288 20.3945 40.5288C28.8432 40.5288 35.6909 31.4571 35.6909 20.2644C35.6909 9.0717 28.8432 0 20.3945 0C31.6578 0 40.7896 9.0717 40.7896 20.2644Z" fill="white"/>
<path d="M20.3939 35.462C11.9452 35.462 5.09766 28.6582 5.09766 20.2638C5.09766 11.8693 11.9452 5.06543 20.3939 5.06543C14.7598 5.06543 10.1964 11.8693 10.1964 20.2638C10.1964 28.6582 14.7598 35.462 20.3939 35.462Z" fill="white"/>
<path d="M35.6907 20.2646C35.6907 28.6592 28.843 35.4628 20.3945 35.4628C26.0286 35.4628 30.592 28.6592 30.592 20.2646C30.592 11.87 26.0286 5.06641 20.3945 5.06641C28.843 5.06641 35.6907 11.87 35.6907 20.2646Z" fill="white"/>
<path d="M15.294 20.2645C15.294 14.6687 17.5769 10.1323 20.3927 10.1323C14.7607 10.1323 10.1953 14.6687 10.1953 20.2645C10.1953 25.8604 14.7607 30.3967 20.3927 30.3967C17.5769 30.3967 15.294 25.8604 15.294 20.2645Z" fill="white"/>
<path d="M20.3945 10.1313C23.2104 10.1313 25.4931 14.6676 25.4931 20.2635C25.4931 25.8593 23.2104 30.3956 20.3945 30.3956C26.0264 30.3956 30.592 25.8593 30.592 20.2635C30.592 14.6676 26.0264 10.1313 20.3945 10.1313Z" fill="white"/>
<path d="M67.5283 18.6537C67.5283 14.4929 65.353 10.7914 60.4587 10.7914C55.564 10.7914 53.3886 14.4929 53.3886 18.6537C53.3886 22.8144 55.564 26.543 60.4587 26.543C65.353 26.543 67.5283 22.8144 67.5283 18.6537ZM50.9414 18.6537C50.9414 12.8448 54.7481 8.62988 60.4587 8.62988C66.1686 8.62988 69.9759 12.8448 69.9759 18.6537C69.9759 24.4627 66.1686 28.7044 60.4587 28.7044C54.7481 28.7044 50.9414 24.4627 50.9414 18.6537Z" fill="white"/>
<path d="M83.2261 21.4361C83.2261 18.7343 81.7845 16.0594 78.9293 16.0594C76.3463 16.0594 74.7418 18.1939 74.7418 21.4361C74.7418 24.6782 76.3463 26.8126 78.9293 26.8126C81.7845 26.8126 83.2261 24.1378 83.2261 21.4361ZM85.4015 21.4361C85.4015 25.9751 82.6276 28.7038 79.2015 28.7038C76.9172 28.7038 75.6119 27.7314 74.7963 26.5424H74.7418V32.9728H72.5664V14.5466H74.7418V16.2485H74.7963C75.6119 15.1949 76.9172 14.168 79.2015 14.168C82.6276 14.168 85.4015 16.8971 85.4015 21.4361Z" fill="white"/>
<path d="M90.5817 16.4365V24.7311C90.5817 26.2979 91.4518 26.5683 93.301 26.4331V28.3243C92.8115 28.4323 92.2406 28.4864 91.6695 28.4864C89.8205 28.4864 88.4063 27.7571 88.4063 24.9472V16.4365H86.3672V14.5452H88.4063V9.95215H90.5817V14.5452H93.301V16.4365H90.5817Z" fill="white"/>
<path d="M98.0488 28.3244H95.8734V14.5453H98.0488V28.3244ZM95.6016 10.5736C95.6016 9.73614 96.3629 9.27686 96.9614 9.27686C97.5867 9.27686 98.3209 9.73614 98.3209 10.5736C98.3209 11.4112 97.5867 11.8705 96.9614 11.8705C96.3629 11.8705 95.6016 11.4112 95.6016 10.5736Z" fill="white"/>
<path d="M119.955 18.7072V28.3255H117.78V19.2475C117.78 17.4644 117.426 16.0595 115.251 16.0595C113.075 16.0595 111.716 17.5996 111.716 19.734V28.3255H109.541V19.2475C109.541 17.4644 109.187 16.0595 107.011 16.0595C104.836 16.0595 103.477 17.5996 103.477 19.734V28.3255H101.301V14.5464H103.477V16.1945H103.531C104.265 15.222 105.462 14.168 107.555 14.168C109.541 14.168 110.683 15.0057 111.253 16.5458H111.308C112.259 15.2488 113.701 14.168 115.795 14.168C118.595 14.168 119.955 15.8163 119.955 18.7072Z" fill="white"/>
<path d="M131.342 23.0031V20.7065C130.934 21.1117 129.602 21.49 128.134 21.7873C125.442 22.3547 124.19 23.0301 124.19 24.6782C124.19 26.029 125.007 26.8126 126.801 26.8126C129.384 26.8126 131.342 25.6507 131.342 23.0031ZM128.514 16.0595C125.877 16.0595 125.007 16.8158 124.87 18.8152H122.695C122.831 16.1674 124.49 14.168 128.514 14.168C131.152 14.168 133.518 15.195 133.518 18.518V25.2184C133.518 26.2991 133.708 26.8937 135.095 26.7315V28.2446C134.524 28.4335 134.225 28.4605 133.817 28.4605C132.511 28.4605 131.723 28.1094 131.342 26.5965H131.288C130.418 27.8932 128.868 28.7039 126.584 28.7039C123.783 28.7039 122.016 27.1099 122.016 24.7862C122.016 21.6523 124.354 20.8417 127.943 20.1662C130.282 19.734 131.342 19.4365 131.342 18.0587C131.342 16.9782 130.744 16.0595 128.514 16.0595Z" fill="white"/>
<path d="M86.5466 37.1251L86.3978 37.7654C86.278 38.2868 86.2181 38.6911 86.2181 38.9783C86.2181 39.2328 86.2841 39.4246 86.4165 39.554C86.5487 39.6831 86.7161 39.7479 86.9184 39.7479C87.1949 39.7479 87.4306 39.63 87.6248 39.3939C87.8191 39.158 88.033 38.5442 88.2661 37.5529C88.4995 36.5616 88.6162 35.9514 88.6162 35.7213C88.6162 35.352 88.4342 35.1673 88.0708 35.1673C87.8023 35.1673 87.5265 35.3027 87.2438 35.5736C86.9608 35.8444 86.7284 36.3616 86.5466 37.1251ZM87.8788 31.5225L86.9307 35.5736L86.9556 35.5982C87.2941 35.1017 87.7076 34.8534 88.1949 34.8534C88.6162 34.8534 88.9778 35.0248 89.2792 35.3673C89.5807 35.7102 89.7314 36.1647 89.7314 36.731C89.7314 37.5479 89.4195 38.301 88.7959 38.9906C88.1723 39.6802 87.4906 40.025 86.7512 40.025C86.305 40.025 85.9271 39.8944 85.6171 39.634C85.3073 39.3734 85.1523 39.0274 85.1523 38.5965C85.1523 38.2314 85.1896 37.9173 85.2639 37.6545C85.2762 37.63 85.299 37.5541 85.3322 37.4267L86.6395 31.9289H85.8898L85.9518 31.6149H86.6767C87.1229 31.6149 87.5234 31.5841 87.8788 31.5225Z" fill="white"/>
<path d="M92.9743 40.1607L91.9332 36.4173C91.8342 36.0564 91.7606 35.8255 91.7134 35.7248C91.6659 35.6244 91.5947 35.5739 91.4995 35.5739C91.2681 35.5739 91.0015 36.0071 90.7003 36.873H90.4337C90.6404 36.2081 90.8882 35.7095 91.1772 35.377C91.4663 35.0444 91.7637 34.8784 92.0697 34.8784C92.2719 34.8784 92.4485 34.9501 92.5995 35.0937C92.7504 35.2376 92.8959 35.5616 93.0362 36.0664L93.7488 38.6463H93.7737C93.8604 38.3753 94.0887 37.771 94.4583 36.8329C94.8279 35.8951 95.0833 35.335 95.2236 35.1522C95.3639 34.9697 95.5357 34.8784 95.738 34.8784C96.0601 34.8784 96.2213 35.0345 96.2213 35.3463C96.2213 35.5022 96.1788 35.6274 96.0943 35.7218C96.0097 35.8163 95.9153 35.8633 95.8123 35.8633C95.7463 35.8633 95.675 35.8378 95.5984 35.7864C95.522 35.7352 95.4674 35.7095 95.4344 35.7095C95.2773 35.7095 95.0912 35.9741 94.8766 36.5036L93.7984 39.1633C93.4473 40.0169 92.9455 40.8904 92.2926 41.7829C91.6398 42.6758 90.89 43.122 90.0433 43.122C89.7871 43.122 89.5964 43.0635 89.4702 42.9465C89.344 42.8296 89.2812 42.6991 89.2812 42.5557C89.2812 42.4364 89.3224 42.3359 89.4052 42.254C89.488 42.1718 89.5972 42.1307 89.7335 42.1307C90.0147 42.1307 90.2106 42.264 90.3222 42.531C90.4005 42.6991 90.4812 42.7835 90.5638 42.7835C90.7537 42.7835 91.0741 42.6038 91.5242 42.2448C91.9745 41.8855 92.4578 41.1909 92.9743 40.1607Z" fill="white"/>
<path d="M103.665 31.9277L102.054 39.5559H103.108C103.595 39.5559 104.001 39.5251 104.325 39.4635C104.649 39.4019 104.944 39.2564 105.208 39.0265C105.472 38.7965 105.735 38.3491 105.995 37.6843C106.255 37.0194 106.444 36.3382 106.562 35.6402C106.68 34.9425 106.739 34.3227 106.739 33.781C106.739 33.272 106.629 32.8708 106.41 32.5772C106.191 32.2838 105.949 32.1024 105.685 32.0324C105.421 31.9628 105.014 31.9277 104.465 31.9277H103.665ZM100.61 39.5559L102.221 31.9277H100.939L101.013 31.6138H104.378C104.939 31.6138 105.421 31.6529 105.821 31.7307C106.222 31.8088 106.619 32.0077 107.011 32.3279C107.404 32.648 107.702 33.0432 107.907 33.5131C108.111 33.9831 108.213 34.4746 108.213 34.9876C108.213 36.2026 107.774 37.3201 106.894 38.3399C106.014 39.3599 104.808 39.8699 103.275 39.8699H99.4023L99.4704 39.5559H100.61Z" fill="white"/>
<path d="M114.302 35.0306L113.49 38.5216C113.478 38.5421 113.453 38.6384 113.416 38.8108C113.379 38.9832 113.36 39.127 113.36 39.2417C113.36 39.3075 113.379 39.3702 113.419 39.4296C113.458 39.4893 113.506 39.5188 113.564 39.5188C113.717 39.5188 113.896 39.3907 114.101 39.1341C114.305 38.8777 114.494 38.5381 114.667 38.1151H114.946C114.707 38.7638 114.42 39.244 114.088 39.5558C113.756 39.8678 113.42 40.0237 113.081 40.0237C112.817 40.0237 112.617 39.9242 112.483 39.7252C112.349 39.5261 112.282 39.3015 112.282 39.0509C112.282 38.9732 112.298 38.8376 112.331 38.6447L112.307 38.62C111.666 39.5558 110.999 40.0237 110.305 40.0237C110.012 40.0237 109.755 39.9261 109.534 39.7313C109.313 39.5365 109.202 39.2749 109.202 38.9462C109.202 38.8315 109.22 38.698 109.255 38.5462C109.29 38.3945 109.322 38.2506 109.351 38.1151L110.001 35.3077H109.023L109.097 35.0306H110.138C110.452 35.0306 110.706 35.0174 110.9 34.9907C111.094 34.9641 111.22 34.9507 111.278 34.9507L110.442 38.5216C110.359 38.8294 110.317 39.0655 110.317 39.2296C110.317 39.4799 110.435 39.6051 110.671 39.6051C110.91 39.6051 111.243 39.4141 111.668 39.0325C112.094 38.6507 112.412 38.0148 112.623 37.124L113.118 35.0306H114.302Z" fill="white"/>
<path d="M119.106 36.1773C119.106 35.89 119.038 35.6397 118.901 35.4262C118.765 35.213 118.567 35.1061 118.306 35.1061C118.075 35.1061 117.878 35.2037 117.715 35.3983C117.551 35.5936 117.345 36.2031 117.095 37.2271C116.845 38.2512 116.72 38.8843 116.72 39.1264C116.72 39.2825 116.766 39.4178 116.856 39.5327C116.947 39.6478 117.063 39.7052 117.203 39.7052C117.745 39.7052 118.197 39.2816 118.561 38.4338C118.924 37.5863 119.106 36.8341 119.106 36.1773ZM121.467 31.5229L119.818 38.486C119.74 38.7858 119.701 39.0382 119.701 39.2434C119.701 39.3666 119.765 39.4281 119.893 39.4281C120.157 39.4281 120.461 39.0179 120.803 38.1968H121.101C120.642 39.4158 120.087 40.0252 119.434 40.0252C118.938 40.0252 118.668 39.6579 118.622 38.9231H118.598C118.197 39.6579 117.701 40.0252 117.11 40.0252C116.706 40.0252 116.354 39.8283 116.054 39.4342C115.754 39.0403 115.605 38.5764 115.605 38.0429C115.605 37.2466 115.893 36.5119 116.469 35.8386C117.045 35.1657 117.65 34.829 118.282 34.829C118.798 34.829 119.133 35.1145 119.285 35.6848H119.31L120.184 31.9292H119.019L119.093 31.6152H120.11C120.585 31.6152 121.037 31.5844 121.467 31.5229Z" fill="white"/>
<path d="M123.7 32.3403C123.7 32.1556 123.769 31.9966 123.905 31.8632C124.041 31.7299 124.2 31.6631 124.382 31.6631C124.572 31.6631 124.734 31.7289 124.868 31.8601C125.003 31.9916 125.07 32.1518 125.07 32.3403C125.07 32.5292 125.002 32.6905 124.865 32.8237C124.729 32.957 124.568 33.0238 124.382 33.0238C124.2 33.0238 124.041 32.957 123.905 32.8237C123.769 32.6905 123.7 32.5292 123.7 32.3403ZM124.438 34.9138L123.508 38.7126C123.442 39.0244 123.409 39.2258 123.409 39.3159C123.409 39.4678 123.486 39.5438 123.638 39.5438C123.828 39.5438 124.048 39.4074 124.298 39.1343C124.548 38.8614 124.793 38.4562 125.033 37.9183H125.311C124.77 39.3221 124.031 40.0239 123.093 40.0239C122.548 40.0239 122.275 39.7407 122.275 39.1742C122.275 39.0018 122.3 38.8194 122.349 38.6263C122.399 38.4334 122.438 38.2754 122.467 38.1523L123.155 35.3448H121.984L122.052 35.0308H122.771C123.362 35.0308 123.917 34.9919 124.438 34.9138Z" fill="white"/>
<path d="M128.332 33.665L128.04 35.0318H128.84L128.771 35.3459H127.96L127.136 38.812C127.07 39.0705 127.036 39.2553 127.036 39.3662C127.036 39.5261 127.105 39.6063 127.241 39.6063C127.571 39.6063 127.935 39.1138 128.332 38.1287H128.586C128.387 38.7485 128.131 39.2195 127.817 39.5416C127.503 39.864 127.167 40.0249 126.807 40.0249C126.225 40.0249 125.934 39.7294 125.934 39.1383C125.934 38.9702 125.983 38.6725 126.082 38.2457L126.77 35.3459H125.958L126.02 35.0318H126.857L127.136 33.8436C127.557 33.8395 127.956 33.7801 128.332 33.665Z" fill="white"/>
<path d="M130.842 35.8265C130.842 35.9621 130.894 36.0953 131 36.2267C131.105 36.3581 131.374 36.5376 131.805 36.7654C132.237 36.9932 132.553 37.2293 132.753 37.4734C132.954 37.7177 133.054 37.996 133.054 38.3076C133.054 38.8125 132.841 39.225 132.415 39.5451C131.99 39.8654 131.488 40.0255 130.91 40.0255C130.447 40.0255 130.064 39.9208 129.76 39.7114C129.457 39.5021 129.305 39.258 129.305 38.9786C129.305 38.8146 129.358 38.6762 129.463 38.5632C129.568 38.4503 129.699 38.3939 129.857 38.3939C130.009 38.3939 130.127 38.4441 130.21 38.5446C130.292 38.6453 130.333 38.7592 130.333 38.8864C130.333 38.9809 130.309 39.0833 130.259 39.1942C130.21 39.305 130.185 39.375 130.185 39.4036C130.185 39.6335 130.439 39.7484 130.947 39.7484C131.335 39.7484 131.646 39.6632 131.879 39.4927C132.113 39.3226 132.23 39.1288 132.23 38.9109C132.23 38.5623 131.903 38.2317 131.251 37.9198C130.429 37.5217 130.017 37.017 130.017 36.4052C130.017 36.0319 130.189 35.684 130.532 35.3616C130.875 35.0395 131.325 34.8784 131.883 34.8784C132.304 34.8784 132.64 34.9564 132.889 35.1123C133.14 35.2684 133.264 35.4798 133.264 35.7465C133.264 35.8984 133.212 36.0246 133.106 36.1251C133.001 36.2257 132.88 36.276 132.744 36.276C132.608 36.276 132.496 36.2298 132.409 36.1373C132.323 36.0451 132.279 35.9312 132.279 35.7956C132.279 35.7383 132.294 35.6633 132.323 35.5708C132.351 35.4786 132.366 35.4038 132.366 35.3463C132.366 35.2191 132.197 35.1553 131.858 35.1553C131.544 35.1553 131.296 35.2191 131.114 35.3463C130.932 35.4736 130.842 35.6337 130.842 35.8265Z" fill="white"/>
</g>
</g>
</g>
<defs>
<clipPath id="clip0_113_6">
<rect width="135" height="43" fill="white"/>
</clipPath>
</defs>
</svg>
