<?xml version="1.0" encoding="UTF-8"?>
<svg id="SVGRoot" width="418" height="134" version="1.1" viewBox="0 0 418 134" xmlns="http://www.w3.org/2000/svg">
 <defs>
  <clipPath id="clipPath18-0">
   <path d="m0 1080h1920v-1080h-1920z"/>
  </clipPath>
 </defs>
 <g transform="translate(-.82071 -.96058)">
  <g transform="matrix(.59761 0 0 -.59761 -361.15 390.86)">
   <g clip-path="url(#clipPath18-0)">
    <g transform="translate(711.36 441.09)">
     <path d="m0 0c-58.356 0-105.67 47.305-105.67 105.67s47.314 105.67 105.67 105.67c-43.774 0-79.252-47.305-79.252-105.67s35.478-105.67 79.252-105.67" fill="#0b38bd"/>
    </g>
    <g transform="translate(817.03 546.76)">
     <path d="m0 0c0-58.365-47.313-105.67-105.67-105.67 43.774 0 79.253 47.305 79.253 105.67s-35.479 105.67-79.253 105.67c58.357 0 105.67-47.305 105.67-105.67" fill="#0b38bd"/>
    </g>
    <g transform="translate(711.36 467.51)">
     <path d="m0 0c-43.774 0-79.252 35.479-79.252 79.252 0 43.774 35.478 79.253 79.252 79.253-29.191 0-52.835-35.479-52.835-79.253 0-43.773 23.644-79.252 52.835-79.252" fill="#0b38bd"/>
    </g>
    <g transform="translate(790.61 546.76)">
     <path d="m0 0c0-43.774-35.479-79.252-79.252-79.252 29.191 0 52.835 35.478 52.835 79.252s-23.644 79.252-52.835 79.252c43.773 0 79.252-35.478 79.252-79.252" fill="#0b38bd"/>
    </g>
    <g transform="translate(684.94 546.76)">
     <path d="m0 0c0 29.18 11.828 52.835 26.417 52.835-29.18 0-52.834-23.655-52.834-52.835s23.654-52.835 52.834-52.835c-14.589 0-26.417 23.655-26.417 52.835" fill="#0b38bd"/>
    </g>
    <g transform="translate(711.36 599.6)">
     <path d="m0 0c14.59 0 26.417-23.655 26.417-52.835s-11.827-52.835-26.417-52.835c29.18 0 52.835 23.655 52.835 52.835s-23.655 52.835-52.835 52.835" fill="#0b38bd"/>
    </g>
    <g transform="translate(955.57 555.16)">
     <path d="m0 0c0 21.697-11.271 40.999-36.629 40.999-25.36 0-36.631-19.302-36.631-40.999 0-21.696 11.271-41.139 36.631-41.139 25.358 0 36.629 19.443 36.629 41.139m-85.939 0c0 30.291 19.723 52.27 49.31 52.27 29.584 0 49.31-21.979 49.31-52.27s-19.726-52.41-49.31-52.41c-29.587 0-49.31 22.119-49.31 52.41"/>
    </g>
    <g transform="translate(1036.9 540.65)">
     <path d="m0 0c0 14.089-7.469 28.037-22.262 28.037-13.383 0-21.696-11.13-21.696-28.037 0-16.906 8.313-28.036 21.696-28.036 14.793 0 22.262 13.948 22.262 28.036m11.271 0c0-23.669-14.372-37.898-32.123-37.898-11.835 0-18.598 5.071-22.824 11.271h-0.282v-33.532h-11.271v96.085h11.271v-8.875h0.282c4.226 5.494 10.989 10.849 22.824 10.849 17.751 0 32.123-14.231 32.123-37.9"/>
    </g>
    <g transform="translate(1075 566.72)">
     <path d="m0 0v-43.253c0-8.17 4.508-9.58 14.089-8.875v-9.862c-2.536-0.563-5.494-0.845-8.453-0.845-9.58 0-16.907 3.803-16.907 18.455v44.38h-10.565v9.862h10.565v23.951h11.271v-23.951h14.089v-9.862z"/>
    </g>
    <path d="m1113.7 504.73h-11.271v71.852h11.271zm-12.679 92.563c0 4.367 3.944 6.762 7.045 6.762 3.24 0 7.044-2.395 7.044-6.762 0-4.368-3.804-6.763-7.044-6.763-3.101 0-7.045 2.395-7.045 6.763"/>
    <g transform="translate(1227.2 554.88)">
     <path d="m0 0v-50.155h-11.271v47.338c0 9.298-1.832 16.624-13.101 16.624-11.273 0-18.316-8.031-18.316-19.161v-44.801h-11.27v47.338c0 9.298-1.833 16.624-13.104 16.624s-18.315-8.031-18.315-19.161v-44.801h-11.271v71.852h11.271v-8.594h0.282c3.804 5.071 10.003 10.567 20.851 10.567 10.286 0 16.202-4.368 19.16-12.399h0.282c4.93 6.763 12.399 12.399 23.246 12.399 14.512 0 21.556-8.595 21.556-23.67"/>
    </g>
    <g transform="translate(1286.2 532.48)">
     <path d="m0 0v11.976c-2.114-2.113-9.017-4.086-16.625-5.636-13.948-2.959-20.431-6.481-20.431-15.075 0-7.044 4.229-11.13 13.526-11.13 13.385 0 23.53 6.059 23.53 19.865m-14.653 36.208c-13.665 0-18.174-3.944-18.88-14.37h-11.271c0.706 13.807 9.299 24.233 30.151 24.233 13.665 0 25.924-5.355 25.924-22.683v-34.94c0-5.635 0.986-8.736 8.17-7.89v-7.89c-2.958-0.985-4.508-1.126-6.622-1.126-6.763 0-10.847 1.831-12.819 9.72h-0.282c-4.509-6.762-12.539-10.989-24.374-10.989-14.511 0-23.668 8.312-23.668 20.429 0 16.342 12.115 20.569 30.712 24.091 12.115 2.254 17.612 3.805 17.612 10.99 0 5.634-3.101 10.425-14.653 10.425"/>
    </g>
    <g transform="translate(1054.1 458.84)">
     <path d="m0 0-0.771-3.339c-0.621-2.719-0.931-4.827-0.931-6.325 0-1.327 0.342-2.327 1.028-3.002 0.685-0.673 1.552-1.011 2.6-1.011 1.433 0 2.654 0.615 3.66 1.846 1.007 1.23 2.115 4.431 3.323 9.6 1.209 5.169 1.814 8.351 1.814 9.551 0 1.926-0.943 2.889-2.826 2.889-1.391 0-2.82-0.706-4.285-2.119-1.466-1.412-2.67-4.109-3.612-8.09m6.902 29.215-4.912-21.125 0.129-0.128c1.754 2.589 3.896 3.884 6.421 3.884 2.183 0 4.056-0.894 5.618-2.68 1.562-1.788 2.343-4.158 2.343-7.111 0-4.26-1.616-8.187-4.847-11.783s-6.763-5.394-10.594-5.394c-2.312 0-4.27 0.681-5.876 2.039-1.605 1.359-2.408 3.163-2.408 5.41 0 1.904 0.193 3.542 0.578 4.912 0.064 0.128 0.182 0.524 0.354 1.188l6.773 28.669h-3.884l0.321 1.637h3.756c2.312 0 4.387 0.161 6.228 0.482" fill="#0b38bd"/>
    </g>
    <g transform="translate(1087.4 443.01)">
     <path d="m0 0-5.394 19.52c-0.513 1.882-0.894 3.086-1.139 3.611-0.246 0.524-0.615 0.787-1.108 0.787-1.199 0-2.58-2.259-4.141-6.774h-1.381c1.071 3.467 2.355 6.067 3.852 7.801 1.498 1.734 3.039 2.6 4.624 2.6 1.048 0 1.963-0.374 2.745-1.123 0.782-0.75 1.536-2.44 2.263-5.072l3.692-13.453h0.129c0.449 1.413 1.632 4.564 3.547 9.456 1.915 4.89 3.238 7.811 3.965 8.764 0.727 0.952 1.617 1.428 2.665 1.428 1.669 0 2.504-0.814 2.504-2.44 0-0.813-0.22-1.466-0.658-1.958-0.438-0.493-0.927-0.738-1.461-0.738-0.342 0-0.711 0.133-1.108 0.401-0.396 0.267-0.679 0.401-0.85 0.401-0.814 0-1.778-1.38-2.89-4.141l-5.586-13.869c-1.819-4.451-4.419-9.006-7.802-13.66-3.382-4.656-7.267-6.983-11.654-6.983-1.327 0-2.315 0.305-2.969 0.915s-0.979 1.29-0.979 2.038c0 0.622 0.213 1.146 0.642 1.573 0.429 0.429 0.995 0.643 1.701 0.643 1.457 0 2.472-0.695 3.05-2.087 0.406-0.877 0.824-1.317 1.252-1.317 0.984 0 2.644 0.937 4.976 2.809 2.333 1.874 4.837 5.496 7.513 10.868" fill="#0b38bd"/>
    </g>
    <g transform="translate(1142.8 485.94)">
     <path d="m0 0-8.347-39.778h5.458c2.524 0 4.627 0.161 6.308 0.482s3.206 1.08 4.575 2.279 2.729 3.532 4.077 6.999c1.349 3.467 2.328 7.019 2.938 10.659 0.61 3.638 0.915 6.87 0.915 9.695 0 2.654-0.567 4.746-1.701 6.277-1.136 1.53-2.388 2.476-3.757 2.841-1.369 0.363-3.479 0.546-6.324 0.546zm-15.828-39.778 8.348 39.778h-6.646l0.385 1.637h17.433c2.91 0 5.405-0.204 7.48-0.61 2.076-0.407 4.131-1.444 6.164-3.114 2.035-1.669 3.58-3.73 4.64-6.18 1.059-2.451 1.589-5.014 1.589-7.689 0-6.336-2.279-12.163-6.838-17.481-4.559-5.319-10.808-7.978-18.749-7.978h-20.066l0.353 1.637z" fill="#0b38bd"/>
    </g>
    <g transform="translate(1197.9 469.76)">
     <path d="m0 0-4.206-18.204c-0.064-0.107-0.192-0.609-0.385-1.508s-0.289-1.649-0.289-2.247c0-0.343 0.101-0.67 0.305-0.98 0.204-0.311 0.454-0.465 0.754-0.465 0.792 0 1.718 0.668 2.778 2.006 1.059 1.337 2.038 3.108 2.937 5.314h1.445c-1.241-3.383-2.725-5.887-4.447-7.513-1.722-1.627-3.462-2.44-5.217-2.44-1.369 0-2.403 0.519-3.098 1.557s-1.043 2.209-1.043 3.516c0 0.405 0.085 1.112 0.257 2.118l-0.129 0.129c-3.318-4.88-6.774-7.32-10.37-7.32-1.52 0-2.852 0.509-3.997 1.525-1.144 1.016-1.717 2.38-1.717 4.094 0 0.598 0.091 1.294 0.273 2.086 0.181 0.791 0.348 1.541 0.497 2.248l3.371 14.639h-5.072l0.385 1.445h5.394c1.625 0 2.942 0.069 3.949 0.208 1.006 0.139 1.657 0.209 1.958 0.209l-4.334-18.621c-0.429-1.605-0.643-2.836-0.643-3.692 0-1.305 0.611-1.958 1.831-1.958 1.24 0 2.965 0.996 5.168 2.986 2.204 1.991 3.853 5.307 4.944 9.952l2.569 10.916z" fill="#0b38bd"/>
    </g>
    <g transform="translate(1222.8 463.78)">
     <path d="m0 0c0 1.498-0.353 2.804-1.06 3.917-0.706 1.112-1.733 1.669-3.082 1.669-1.199 0-2.219-0.509-3.066-1.524-0.846-1.018-1.915-4.196-3.21-9.536-1.296-5.34-1.942-8.642-1.942-9.904 0-0.814 0.236-1.52 0.706-2.119 0.47-0.6 1.071-0.899 1.798-0.899 2.804 0 5.148 2.209 7.031 6.63 1.883 4.419 2.825 8.341 2.825 11.766m12.232 24.271-8.54-36.31c-0.406-1.563-0.61-2.879-0.61-3.949 0-0.642 0.333-0.963 0.995-0.963 1.369 0 2.943 2.139 4.719 6.421h1.541c-2.375-6.357-5.253-9.535-8.635-9.535-2.569 0-3.97 1.915-4.206 5.747h-0.129c-2.075-3.832-4.643-5.747-7.705-5.747-2.098 0-3.921 1.027-5.474 3.082-1.552 2.054-2.327 4.473-2.327 7.255 0 4.152 1.493 7.983 4.478 11.494 2.986 3.509 6.117 5.265 9.391 5.265 2.676 0 4.41-1.489 5.201-4.463h0.129l4.526 19.584h-6.036l0.386 1.638h5.265c2.461 0 4.804 0.16 7.031 0.481" fill="#0b38bd"/>
    </g>
    <g transform="translate(1246.6 483.79)">
     <path d="m0 0c0 0.963 0.354 1.792 1.06 2.488 0.706 0.695 1.529 1.043 2.472 1.043 0.984 0 1.825-0.343 2.52-1.027 0.695-0.686 1.043-1.521 1.043-2.504 0-0.985-0.353-1.826-1.059-2.521s-1.541-1.043-2.504-1.043c-0.943 0-1.766 0.348-2.472 1.043s-1.06 1.536-1.06 2.521m3.821-13.42-4.816-19.809c-0.342-1.626-0.514-2.676-0.514-3.146 0-0.792 0.397-1.188 1.188-1.188 0.984 0 2.124 0.711 3.419 2.135 1.296 1.423 2.564 3.536 3.805 6.341h1.444c-2.804-7.32-6.634-10.98-11.493-10.98-2.825 0-4.238 1.477-4.238 4.431 0 0.899 0.129 1.85 0.385 2.857 0.257 1.006 0.461 1.83 0.61 2.472l3.564 14.64h-6.068l0.353 1.637h3.725c3.061 0 5.939 0.203 8.636 0.61" fill="#0b38bd"/>
    </g>
    <g transform="translate(1270.6 476.88)">
     <path d="m0 0-1.509-7.127h4.141l-0.353-1.638h-4.205l-4.27-18.074c-0.342-1.348-0.514-2.312-0.514-2.89 0-0.834 0.353-1.252 1.06-1.252 1.712 0 3.595 2.568 5.65 7.705h1.316c-1.027-3.232-2.355-5.688-3.981-7.368-1.626-1.681-3.371-2.52-5.233-2.52-3.018 0-4.526 1.541-4.526 4.623 0 0.877 0.257 2.429 0.77 4.655l3.564 15.121h-4.206l0.321 1.638h4.334l1.445 6.196c2.183 0.021 4.249 0.331 6.196 0.931" fill="#0b38bd"/>
    </g>
    <g transform="translate(1283.6 465.61)">
     <path d="m0 0c0-0.707 0.273-1.402 0.818-2.087 0.546-0.685 1.938-1.621 4.174-2.809s3.873-2.419 4.912-3.692c1.039-1.274 1.557-2.725 1.557-4.35 0-2.633-1.103-4.784-3.307-6.453-2.203-1.67-4.804-2.505-7.801-2.505-2.396 0-4.382 0.546-5.956 1.638-1.572 1.091-2.359 2.364-2.359 3.821 0 0.855 0.273 1.577 0.818 2.166 0.546 0.589 1.225 0.883 2.04 0.883 0.791 0 1.4-0.262 1.829-0.786 0.429-0.525 0.642-1.119 0.642-1.782 0-0.493-0.128-1.027-0.385-1.605s-0.385-0.943-0.385-1.092c0-1.199 1.316-1.798 3.949-1.798 2.011 0 3.623 0.444 4.831 1.333 1.209 0.887 1.814 1.898 1.814 3.034 0 1.818-1.69 3.542-5.072 5.168-4.259 2.076-6.389 4.708-6.389 7.898 0 1.947 0.888 3.761 2.665 5.442 1.777 1.68 4.109 2.52 6.999 2.52 2.183 0 3.921-0.407 5.216-1.22 1.296-0.814 1.943-1.916 1.943-3.307 0-0.792-0.273-1.45-0.819-1.974-0.546-0.525-1.171-0.787-1.878-0.787-0.706 0-1.284 0.241-1.733 0.723-0.45 0.481-0.675 1.075-0.675 1.782 0 0.299 0.076 0.69 0.225 1.172 0.149 0.481 0.224 0.871 0.224 1.171 0 0.663-0.877 0.996-2.632 0.996-1.626 0-2.91-0.333-3.852-0.996-0.943-0.664-1.413-1.499-1.413-2.504" fill="#0b38bd"/>
    </g>
   </g>
  </g>
 </g>
</svg>
